%TF.GenerationSoftware,KiCad,Pcbnew,10.0.0*%
%TF.CreationDate,2026-06-25T20:12:00+05:30*%
%TF.ProjectId,Key Pathfinder,4b657920-5061-4746-9866-696e6465722e,rev?*%
%TF.SameCoordinates,Original*%
%TF.FileFunction,Copper,L2,Bot*%
%TF.FilePolarity,Positive*%
%FSLAX46Y46*%
G04 Gerber Fmt 4.6, Leading zero omitted, Abs format (unit mm)*
G04 Created by KiCad (PCBNEW 10.0.0) date 2026-06-25 20:12:00*
%MOMM*%
%LPD*%
G01*
G04 APERTURE LIST*
%TA.AperFunction,ComponentPad*%
%ADD10C,1.400000*%
%TD*%
%TA.AperFunction,ComponentPad*%
%ADD11C,1.524000*%
%TD*%
%TA.AperFunction,ComponentPad*%
%ADD12C,1.815000*%
%TD*%
%TA.AperFunction,ComponentPad*%
%ADD13R,1.815000X1.815000*%
%TD*%
%TA.AperFunction,ComponentPad*%
%ADD14C,2.200000*%
%TD*%
G04 APERTURE END LIST*
D10*
%TO.P,R2,2*%
%TO.N,LED2*%
X124460000Y-67070000D03*
%TO.P,R2,1*%
%TO.N,Net-(D2-PadA)*%
X124460000Y-72150000D03*
%TD*%
D11*
%TO.P,U1,1,GPIO26/ADC0/A0*%
%TO.N,LED1*%
X174460000Y-62660000D03*
%TO.P,U1,2,GPIO27/ADC1/A1*%
%TO.N,LED2*%
X171920000Y-62660000D03*
%TO.P,U1,3,GPIO28/ADC2/A2*%
%TO.N,LED3*%
X169380000Y-62660000D03*
%TO.P,U1,4,GPIO29/ADC3/A3*%
%TO.N,LED4*%
X166840000Y-62660000D03*
%TO.P,U1,5,GPIO6/SDA*%
%TO.N,unconnected-(U1-GPIO6{slash}SDA-Pad5)*%
X164300000Y-62660000D03*
%TO.P,U1,6,GPIO7/SCL*%
%TO.N,unconnected-(U1-GPIO7{slash}SCL-Pad6)*%
X161760000Y-62660000D03*
%TO.P,U1,7,GPIO0/TX*%
%TO.N,unconnected-(U1-GPIO0{slash}TX-Pad7)*%
X159220000Y-62660000D03*
%TO.P,U1,8,GPIO1/RX*%
%TO.N,Button1*%
X159220000Y-77900000D03*
%TO.P,U1,9,GPIO2/SCK*%
%TO.N,Button2*%
X161760000Y-77900000D03*
%TO.P,U1,10,GPIO4/MISO*%
%TO.N,Button3*%
X164300000Y-77900000D03*
%TO.P,U1,11,GPIO3/MOSI*%
%TO.N,Button4*%
X166840000Y-77900000D03*
%TO.P,U1,12,3V3*%
%TO.N,unconnected-(U1-3V3-Pad12)*%
X169380000Y-77900000D03*
%TO.P,U1,13,GND*%
%TO.N,GND*%
X171920000Y-77900000D03*
%TO.P,U1,14,VBUS*%
%TO.N,unconnected-(U1-VBUS-Pad14)*%
X174460000Y-77900000D03*
%TD*%
D12*
%TO.P,D2,A*%
%TO.N,Net-(D2-PadA)*%
X119730000Y-69660000D03*
D13*
%TO.P,D2,C*%
%TO.N,GND*%
X117190000Y-69660000D03*
%TD*%
D14*
%TO.P,SW2,1,1*%
%TO.N,Button2*%
X130587500Y-85167500D03*
%TO.P,SW2,2,2*%
%TO.N,GND*%
X124237500Y-87707500D03*
%TD*%
D12*
%TO.P,D3,A*%
%TO.N,Net-(D3-PadA)*%
X134730000Y-69660000D03*
D13*
%TO.P,D3,C*%
%TO.N,GND*%
X132190000Y-69660000D03*
%TD*%
D12*
%TO.P,D4,A*%
%TO.N,Net-(D4-PadA)*%
X149730000Y-69660000D03*
D13*
%TO.P,D4,C*%
%TO.N,GND*%
X147190000Y-69660000D03*
%TD*%
D14*
%TO.P,SW1,1,1*%
%TO.N,Button1*%
X111537500Y-85167500D03*
%TO.P,SW1,2,2*%
%TO.N,GND*%
X105187500Y-87707500D03*
%TD*%
D10*
%TO.P,R3,1*%
%TO.N,Net-(D3-PadA)*%
X139460000Y-72150000D03*
%TO.P,R3,2*%
%TO.N,LED3*%
X139460000Y-67070000D03*
%TD*%
D14*
%TO.P,SW3,1,1*%
%TO.N,Button3*%
X149637500Y-85167500D03*
%TO.P,SW3,2,2*%
%TO.N,GND*%
X143287500Y-87707500D03*
%TD*%
%TO.P,SW4,1,1*%
%TO.N,Button4*%
X168687500Y-85167500D03*
%TO.P,SW4,2,2*%
%TO.N,GND*%
X162337500Y-87707500D03*
%TD*%
D12*
%TO.P,D1,A*%
%TO.N,Net-(D1-PadA)*%
X104730000Y-69660000D03*
D13*
%TO.P,D1,C*%
%TO.N,GND*%
X102190000Y-69660000D03*
%TD*%
D10*
%TO.P,R1,1*%
%TO.N,Net-(D1-PadA)*%
X109460000Y-72150000D03*
%TO.P,R1,2*%
%TO.N,LED1*%
X109460000Y-67070000D03*
%TD*%
%TO.P,R4,1*%
%TO.N,Net-(D4-PadA)*%
X154460000Y-72150000D03*
%TO.P,R4,2*%
%TO.N,LED4*%
X154460000Y-67070000D03*
%TD*%
M02*
